<?xml version="1.0" encoding="UTF-8" standalone="no"?>
<svg
   role="img"
   viewBox="0 0 24 24"
   version="1.1"
   id="svg55"
   sodipodi:docname="bitwig.svg"
   inkscape:version="1.1.2 (0a00cf5339, 2022-02-04)"
   xmlns:inkscape="http://www.inkscape.org/namespaces/inkscape"
   xmlns:sodipodi="http://sodipodi.sourceforge.net/DTD/sodipodi-0.dtd"
   xmlns="http://www.w3.org/2000/svg"
   xmlns:svg="http://www.w3.org/2000/svg">
  <defs
     id="defs59" />
  <sodipodi:namedview
     id="namedview57"
     pagecolor="#ffffff"
     bordercolor="#666666"
     borderopacity="1.0"
     inkscape:pageshadow="2"
     inkscape:pageopacity="0.0"
     inkscape:pagecheckerboard="0"
     showgrid="false"
     inkscape:zoom="33.291667"
     inkscape:cx="6.0826033"
     inkscape:cy="12"
     inkscape:window-width="1920"
     inkscape:window-height="1011"
     inkscape:window-x="0"
     inkscape:window-y="32"
     inkscape:window-maximized="1"
     inkscape:current-layer="svg55" />
  <title
     id="title51">Bitwig</title>
  <path
     d="M4.15 7.782a1.59 1.59 0 1 1 3.181 0 1.59 1.59 0 0 1-3.181 0zm5.741 1.591a1.59 1.59 0 1 0 0-3.181 1.59 1.59 0 0 0 0 3.181zm4.218 0a1.59 1.59 0 1 0 0-3.181 1.59 1.59 0 0 0 0 3.181zm4.15 0a1.59 1.59 0 1 0 0-3.181 1.59 1.59 0 0 0 0 3.181zM5.741 10.409a1.59 1.59 0 1 0 0 3.181 1.59 1.59 0 0 0 0-3.181zm8.368 0a1.59 1.59 0 1 0 0 3.181 1.59 1.59 0 0 0 0-3.181zm4.15 0a1.59 1.59 0 1 0 0 3.181 1.59 1.59 0 0 0 0-3.181zm4.15 3.182a1.59 1.59 0 1 0 0-3.181 1.59 1.59 0 0 0 0 3.181zM1.591 10.409a1.591 1.591 0 1 0 0 3.182 1.591 1.591 0 0 0 0-3.182zm4.15 4.218a1.59 1.59 0 1 0 0 3.181 1.59 1.59 0 0 0 0-3.181zm12.518 0a1.59 1.59 0 1 0 0 3.181 1.59 1.59 0 0 0 0-3.181zm4.15 0a1.59 1.59 0 1 0 0 3.181 1.59 1.59 0 0 0 0-3.181zm-20.818 0a1.59 1.59 0 1 0 0 3.181 1.59 1.59 0 0 0 0-3.181m8.3-4.218a1.591 1.591 0 1 0 0 3.182 1.591 1.591 0 0 0 0-3.182Z"
     id="path53"
     style="fill:#033b3d;fill-opacity:1" />
</svg>
